<mxfile host="app.diagrams.net" modified="2023-09-16T19:25:53.180Z" agent="Mozilla/5.0 (X11; Ubuntu; Linux x86_64; rv:109.0) Gecko/20100101 Firefox/117.0" etag="lJPXFhO387zIjTu4siFb" version="21.7.5" type="github">
  <diagram name="Page-1" id="hjq0X-QC_Wx5-_lCW6ab">
    <mxGraphModel dx="1114" dy="615" grid="1" gridSize="10" guides="1" tooltips="1" connect="1" arrows="1" fold="1" page="1" pageScale="1" pageWidth="1390" pageHeight="980" math="0" shadow="0">
      <root>
        <mxCell id="0" />
        <mxCell id="1" parent="0" />
        <mxCell id="bCVVGGlKg3mqAJ3g14ME-1" value="Facultad" style="whiteSpace=wrap;html=1;align=center;" vertex="1" parent="1">
          <mxGeometry x="520" y="300" width="100" height="40" as="geometry" />
        </mxCell>
        <mxCell id="bCVVGGlKg3mqAJ3g14ME-3" style="edgeStyle=orthogonalEdgeStyle;rounded=1;orthogonalLoop=1;jettySize=auto;html=1;exitX=0.5;exitY=1;exitDx=0;exitDy=0;entryX=0;entryY=0.5;entryDx=0;entryDy=0;endArrow=none;endFill=0;" edge="1" parent="1" source="bCVVGGlKg3mqAJ3g14ME-2" target="bCVVGGlKg3mqAJ3g14ME-1">
          <mxGeometry relative="1" as="geometry" />
        </mxCell>
        <mxCell id="bCVVGGlKg3mqAJ3g14ME-2" value="Nombre" style="ellipse;whiteSpace=wrap;html=1;align=center;fontStyle=4;" vertex="1" parent="1">
          <mxGeometry x="450" y="190" width="100" height="40" as="geometry" />
        </mxCell>
        <mxCell id="bCVVGGlKg3mqAJ3g14ME-5" style="edgeStyle=orthogonalEdgeStyle;shape=connector;rounded=1;orthogonalLoop=1;jettySize=auto;html=1;exitX=0;exitY=0.5;exitDx=0;exitDy=0;entryX=1;entryY=0.5;entryDx=0;entryDy=0;labelBackgroundColor=default;strokeColor=default;fontFamily=Helvetica;fontSize=11;fontColor=default;endArrow=none;endFill=0;" edge="1" parent="1" source="bCVVGGlKg3mqAJ3g14ME-4" target="bCVVGGlKg3mqAJ3g14ME-1">
          <mxGeometry relative="1" as="geometry" />
        </mxCell>
        <mxCell id="bCVVGGlKg3mqAJ3g14ME-7" style="edgeStyle=orthogonalEdgeStyle;shape=connector;rounded=1;orthogonalLoop=1;jettySize=auto;html=1;exitX=1;exitY=0.5;exitDx=0;exitDy=0;entryX=0;entryY=0.5;entryDx=0;entryDy=0;labelBackgroundColor=default;strokeColor=default;fontFamily=Helvetica;fontSize=11;fontColor=default;endArrow=none;endFill=0;" edge="1" parent="1" source="bCVVGGlKg3mqAJ3g14ME-4" target="bCVVGGlKg3mqAJ3g14ME-6">
          <mxGeometry relative="1" as="geometry" />
        </mxCell>
        <mxCell id="bCVVGGlKg3mqAJ3g14ME-4" value="Tiene" style="shape=rhombus;perimeter=rhombusPerimeter;whiteSpace=wrap;html=1;align=center;fontFamily=Helvetica;fontSize=11;fontColor=default;" vertex="1" parent="1">
          <mxGeometry x="750" y="290" width="120" height="60" as="geometry" />
        </mxCell>
        <mxCell id="bCVVGGlKg3mqAJ3g14ME-11" style="edgeStyle=orthogonalEdgeStyle;shape=connector;rounded=1;orthogonalLoop=1;jettySize=auto;html=1;exitX=0.5;exitY=1;exitDx=0;exitDy=0;entryX=0.5;entryY=0;entryDx=0;entryDy=0;labelBackgroundColor=default;strokeColor=default;fontFamily=Helvetica;fontSize=11;fontColor=default;endArrow=none;endFill=0;" edge="1" parent="1" source="bCVVGGlKg3mqAJ3g14ME-6" target="bCVVGGlKg3mqAJ3g14ME-10">
          <mxGeometry relative="1" as="geometry" />
        </mxCell>
        <mxCell id="bCVVGGlKg3mqAJ3g14ME-6" value="Departamentos" style="whiteSpace=wrap;html=1;align=center;fontFamily=Helvetica;fontSize=11;fontColor=default;" vertex="1" parent="1">
          <mxGeometry x="1000" y="300" width="100" height="40" as="geometry" />
        </mxCell>
        <mxCell id="bCVVGGlKg3mqAJ3g14ME-9" style="edgeStyle=orthogonalEdgeStyle;shape=connector;rounded=1;orthogonalLoop=1;jettySize=auto;html=1;exitX=0.5;exitY=1;exitDx=0;exitDy=0;entryX=1;entryY=0.5;entryDx=0;entryDy=0;labelBackgroundColor=default;strokeColor=default;fontFamily=Helvetica;fontSize=11;fontColor=default;endArrow=none;endFill=0;" edge="1" parent="1" source="bCVVGGlKg3mqAJ3g14ME-8" target="bCVVGGlKg3mqAJ3g14ME-6">
          <mxGeometry relative="1" as="geometry" />
        </mxCell>
        <mxCell id="bCVVGGlKg3mqAJ3g14ME-8" value="Nombre" style="ellipse;whiteSpace=wrap;html=1;align=center;fontStyle=4;fontFamily=Helvetica;fontSize=11;fontColor=default;" vertex="1" parent="1">
          <mxGeometry x="1080" y="190" width="100" height="40" as="geometry" />
        </mxCell>
        <mxCell id="bCVVGGlKg3mqAJ3g14ME-13" style="edgeStyle=orthogonalEdgeStyle;shape=connector;rounded=1;orthogonalLoop=1;jettySize=auto;html=1;exitX=0.5;exitY=1;exitDx=0;exitDy=0;entryX=0.5;entryY=0;entryDx=0;entryDy=0;labelBackgroundColor=default;strokeColor=default;fontFamily=Helvetica;fontSize=11;fontColor=default;endArrow=none;endFill=0;" edge="1" parent="1" source="bCVVGGlKg3mqAJ3g14ME-10" target="bCVVGGlKg3mqAJ3g14ME-12">
          <mxGeometry relative="1" as="geometry" />
        </mxCell>
        <mxCell id="bCVVGGlKg3mqAJ3g14ME-10" value="Ofrece" style="shape=rhombus;perimeter=rhombusPerimeter;whiteSpace=wrap;html=1;align=center;fontFamily=Helvetica;fontSize=11;fontColor=default;" vertex="1" parent="1">
          <mxGeometry x="990" y="430" width="120" height="60" as="geometry" />
        </mxCell>
        <mxCell id="bCVVGGlKg3mqAJ3g14ME-12" value="Curso" style="shape=ext;margin=3;double=1;whiteSpace=wrap;html=1;align=center;fontFamily=Helvetica;fontSize=11;fontColor=default;" vertex="1" parent="1">
          <mxGeometry x="1000" y="570" width="100" height="40" as="geometry" />
        </mxCell>
        <mxCell id="bCVVGGlKg3mqAJ3g14ME-15" style="edgeStyle=orthogonalEdgeStyle;shape=connector;rounded=1;orthogonalLoop=1;jettySize=auto;html=1;exitX=1;exitY=0.5;exitDx=0;exitDy=0;entryX=0;entryY=0.5;entryDx=0;entryDy=0;labelBackgroundColor=default;strokeColor=default;fontFamily=Helvetica;fontSize=11;fontColor=default;endArrow=none;endFill=0;" edge="1" parent="1" source="bCVVGGlKg3mqAJ3g14ME-14" target="bCVVGGlKg3mqAJ3g14ME-12">
          <mxGeometry relative="1" as="geometry" />
        </mxCell>
        <mxCell id="bCVVGGlKg3mqAJ3g14ME-14" value="NÃºmero" style="ellipse;whiteSpace=wrap;html=1;align=center;fontFamily=Helvetica;fontSize=11;fontColor=default;" vertex="1" parent="1">
          <mxGeometry x="740" y="570" width="100" height="40" as="geometry" />
        </mxCell>
        <mxCell id="bCVVGGlKg3mqAJ3g14ME-17" value="&lt;font style=&quot;font-size: 24px;&quot;&gt;1&lt;/font&gt;" style="text;html=1;align=center;verticalAlign=middle;resizable=0;points=[];autosize=1;strokeColor=none;fillColor=none;fontSize=11;fontFamily=Helvetica;fontColor=default;" vertex="1" parent="1">
          <mxGeometry x="620" y="280" width="40" height="40" as="geometry" />
        </mxCell>
        <mxCell id="bCVVGGlKg3mqAJ3g14ME-18" value="&lt;font style=&quot;font-size: 24px;&quot;&gt;0..*&lt;/font&gt;" style="text;html=1;align=center;verticalAlign=middle;resizable=0;points=[];autosize=1;strokeColor=none;fillColor=none;fontSize=11;fontFamily=Helvetica;fontColor=default;" vertex="1" parent="1">
          <mxGeometry x="930" y="280" width="60" height="40" as="geometry" />
        </mxCell>
        <mxCell id="bCVVGGlKg3mqAJ3g14ME-19" value="&lt;font style=&quot;font-size: 24px;&quot;&gt;1&lt;/font&gt;" style="text;html=1;align=center;verticalAlign=middle;resizable=0;points=[];autosize=1;strokeColor=none;fillColor=none;fontSize=11;fontFamily=Helvetica;fontColor=default;" vertex="1" parent="1">
          <mxGeometry x="1050" y="340" width="40" height="40" as="geometry" />
        </mxCell>
        <mxCell id="bCVVGGlKg3mqAJ3g14ME-20" value="&lt;font style=&quot;font-size: 24px;&quot;&gt;0..*&lt;/font&gt;" style="text;html=1;align=center;verticalAlign=middle;resizable=0;points=[];autosize=1;strokeColor=none;fillColor=none;fontSize=11;fontFamily=Helvetica;fontColor=default;" vertex="1" parent="1">
          <mxGeometry x="1050" y="530" width="60" height="40" as="geometry" />
        </mxCell>
      </root>
    </mxGraphModel>
  </diagram>
</mxfile>
